<?xml version="1.0" encoding="UTF-8" standalone="no"?>
<svg
   xmlns:dc="http://purl.org/dc/elements/1.1/"
   xmlns:cc="http://creativecommons.org/ns#"
   xmlns:rdf="http://www.w3.org/1999/02/22-rdf-syntax-ns#"
   xmlns:svg="http://www.w3.org/2000/svg"
   xmlns="http://www.w3.org/2000/svg"
   xmlns:sodipodi="http://sodipodi.sourceforge.net/DTD/sodipodi-0.dtd"
   xmlns:inkscape="http://www.inkscape.org/namespaces/inkscape"
   version="1.1"
   id="Capa_1"
   x="0px"
   y="0px"
   viewBox="0 0 512 512"
   style="enable-background:new 0 0 512 512;"
   xml:space="preserve"
   width="512px"
   height="512px"
   sodipodi:docname="002-tag.svg"
   inkscape:version="1.0.1 (c497b03c, 2020-09-10)"><metadata
   id="metadata975"><rdf:RDF><cc:Work
       rdf:about=""><dc:format>image/svg+xml</dc:format><dc:type
         rdf:resource="http://purl.org/dc/dcmitype/StillImage" /></cc:Work></rdf:RDF></metadata><defs
   id="defs973" /><sodipodi:namedview
   pagecolor="#ffffff"
   bordercolor="#666666"
   borderopacity="1"
   objecttolerance="10"
   gridtolerance="10"
   guidetolerance="10"
   inkscape:pageopacity="0"
   inkscape:pageshadow="2"
   inkscape:window-width="1440"
   inkscape:window-height="900"
   id="namedview971"
   showgrid="false"
   inkscape:zoom="1.1992188"
   inkscape:cx="256"
   inkscape:cy="256"
   inkscape:window-x="0"
   inkscape:window-y="0"
   inkscape:window-maximized="0"
   inkscape:current-layer="Capa_1" />
<g
   id="g938"
   style="fill:#ff7f2a">
	<g
   id="g936"
   style="fill:#ff7f2a">
		<g
   id="g934"
   style="fill:#ff7f2a">
			<path
   d="M497.854,270.146L245.048,14.602C236.834,4.563,225.882,0,213.105,0H46.089C20.535,0,0.456,20.078,0.456,45.633v167.016     c0,11.865,4.563,23.729,13.69,31.943l23.729,23.729c-0.913,10.952-0.913,21.904-0.913,32.856     c0,8.214,0.913,191.658,45.633,191.658c30.118,0,40.157-79.401,43.807-135.986L269.69,498.31     c8.214,8.214,20.078,13.69,31.943,13.69s23.729-4.563,31.943-13.69l164.278-164.278c8.214-8.214,13.69-20.078,13.69-31.943     C511.544,290.225,506.98,278.36,497.854,270.146z M82.595,474.581c-10.039-3.651-27.38-65.711-27.38-173.405     c0-4.563,0-10.039,0-14.603l53.847,52.934C105.412,423.472,90.809,470.93,82.595,474.581z M82.595,109.519     c-9.127,0-15.515,7.301-20.078,15.515c-4.563-7.301-7.301-15.515-7.301-24.642c0-25.554,20.078-45.633,45.633-45.633     c25.554,0,45.633,20.078,45.633,45.633c0,21.904-15.515,40.157-35.594,44.72C104.499,124.121,95.373,109.519,82.595,109.519z      M92.635,145.112c-5.476-0.913-10.952-3.651-16.428-6.389c3.651-8.214,6.389-10.952,6.389-10.952     C85.333,128.685,88.984,135.073,92.635,145.112z M485.077,320.342L320.799,484.62c-10.039,10.039-28.292,10.039-38.332,0     L127.316,332.207c0.913-17.341,0.913-29.205,0.913-31.03c0-5.476,0-83.964-12.777-138.724     c28.292-6.389,49.283-31.943,49.283-62.061c0-35.594-28.292-63.886-63.886-63.886s-63.886,28.292-63.886,63.886     c0,19.166,8.214,35.594,20.991,47.458c0,0,0.913,0,0.913,0.913c10.039,9.127,23.729,14.603,38.332,15.515     c6.389,29.205,12.777,75.75,12.777,136.898c0,4.563,0,9.127,0,13.69l-83.052-82.139c-5.476-5.476-8.214-12.777-8.214-20.078     V45.633c0-15.515,11.865-27.38,27.38-27.38h167.016c7.301,0,14.602,2.738,19.166,8.214l252.806,255.544     c5.476,5.476,8.214,11.865,8.214,19.166C493.291,308.478,490.553,315.779,485.077,320.342z"
   fill="#004C81"
   id="path916"
   style="fill:#ff7f2a" />
			<path
   d="M368.257,367.8l-73.013,73.013c-3.651,3.651-3.651,9.127,0,12.777c1.825,1.825,4.563,2.738,6.389,2.738     s4.563-0.913,6.389-2.738l73.012-73.012c3.651-3.651,3.651-9.127,0-12.777S371.907,364.15,368.257,367.8z"
   fill="#004C81"
   id="path918"
   style="fill:#ff7f2a" />
			<path
   d="M441.269,294.788l-36.506,36.506c-3.651,3.651-3.651,9.127,0,12.777c1.825,1.825,4.563,2.738,6.389,2.738     s4.563-0.913,6.389-2.738l36.506-36.506c3.651-3.651,3.651-9.127,0-12.777S444.92,291.137,441.269,294.788z"
   fill="#004C81"
   id="path920"
   style="fill:#ff7f2a" />
			<path
   d="M308.021,367.8c-3.651-3.651-9.127-3.651-12.777,0l-36.506,36.506c-3.651,3.651-3.651,9.127,0,12.777     c1.825,1.825,4.563,2.738,6.389,2.738s4.563-0.913,6.389-2.738l36.506-36.506C311.672,376.927,311.672,371.451,308.021,367.8z"
   fill="#004C81"
   id="path922"
   style="fill:#ff7f2a" />
			<path
   d="M331.75,344.071c1.825,1.825,4.563,2.738,6.389,2.738s4.563-0.913,6.389-2.738l73.012-73.013     c3.651-3.651,3.651-9.127,0-12.777c-3.651-3.651-9.127-3.651-12.777,0l-73.013,73.013     C328.1,334.945,328.1,340.421,331.75,344.071z"
   fill="#004C81"
   id="path924"
   style="fill:#ff7f2a" />
			<path
   d="M381.034,221.775c-3.651-3.651-9.127-3.651-12.777,0L222.232,367.8c-3.651,3.651-3.651,9.127,0,12.777     c1.825,1.825,3.651,2.738,6.389,2.738c2.738,0,4.563-0.913,6.389-2.738l146.025-146.025     C384.685,230.902,384.685,225.426,381.034,221.775z"
   fill="#004C81"
   id="path926"
   style="fill:#ff7f2a" />
			<path
   d="M228.62,292.05c5.476,0,9.127-3.651,9.127-9.127V173.405c0-5.476-3.651-9.127-9.127-9.127     c-5.476,0-9.127,3.651-9.127,9.127v109.519C219.494,288.399,223.144,292.05,228.62,292.05z"
   fill="#004C81"
   id="path928"
   style="fill:#ff7f2a" />
			<path
   d="M256,264.67c5.476,0,9.127-3.651,9.127-9.127v-54.759c0-5.476-3.651-9.127-9.127-9.127s-9.127,3.651-9.127,9.127v54.759     C246.873,261.02,250.524,264.67,256,264.67z"
   fill="#004C81"
   id="path930"
   style="fill:#ff7f2a" />
			<path
   d="M201.241,191.658c-5.476,0-9.127,3.651-9.127,9.127v54.759c0,5.476,3.651,9.127,9.127,9.127s9.127-3.651,9.127-9.127     v-54.759C210.367,195.308,206.717,191.658,201.241,191.658z"
   fill="#004C81"
   id="path932"
   style="fill:#ff7f2a" />
		</g>
	</g>
</g>
<g
   id="g940">
</g>
<g
   id="g942">
</g>
<g
   id="g944">
</g>
<g
   id="g946">
</g>
<g
   id="g948">
</g>
<g
   id="g950">
</g>
<g
   id="g952">
</g>
<g
   id="g954">
</g>
<g
   id="g956">
</g>
<g
   id="g958">
</g>
<g
   id="g960">
</g>
<g
   id="g962">
</g>
<g
   id="g964">
</g>
<g
   id="g966">
</g>
<g
   id="g968">
</g>
</svg>
