<?xml version="1.0" encoding="UTF-8" standalone="no"?>
<svg
   xmlns:dc="http://purl.org/dc/elements/1.1/"
   xmlns:cc="http://creativecommons.org/ns#"
   xmlns:rdf="http://www.w3.org/1999/02/22-rdf-syntax-ns#"
   xmlns:svg="http://www.w3.org/2000/svg"
   xmlns="http://www.w3.org/2000/svg"
   xmlns:sodipodi="http://sodipodi.sourceforge.net/DTD/sodipodi-0.dtd"
   xmlns:inkscape="http://www.inkscape.org/namespaces/inkscape"
   height="512px"
   viewBox="0 0 60 60"
   width="512px"
   version="1.1"
   id="svg836"
   sodipodi:docname="003-scratch.svg"
   inkscape:version="1.0.1 (c497b03c, 2020-09-10)">
  <metadata
     id="metadata842">
    <rdf:RDF>
      <cc:Work
         rdf:about="">
        <dc:format>image/svg+xml</dc:format>
        <dc:type
           rdf:resource="http://purl.org/dc/dcmitype/StillImage" />
      </cc:Work>
    </rdf:RDF>
  </metadata>
  <defs
     id="defs840" />
  <sodipodi:namedview
     pagecolor="#ffffff"
     bordercolor="#666666"
     borderopacity="1"
     objecttolerance="10"
     gridtolerance="10"
     guidetolerance="10"
     inkscape:pageopacity="0"
     inkscape:pageshadow="2"
     inkscape:window-width="1440"
     inkscape:window-height="900"
     id="namedview838"
     showgrid="false"
     inkscape:zoom="1.1972656"
     inkscape:cx="256"
     inkscape:cy="256"
     inkscape:window-x="0"
     inkscape:window-y="0"
     inkscape:window-maximized="0"
     inkscape:current-layer="svg836" />
  <g
     id="Page-1"
     fill="none"
     fill-rule="evenodd"
     style="fill:#ff7f2a">
    <g
       id="034---Cat-Tree"
       fill="rgb(0,0,0)"
       fill-rule="nonzero"
       style="fill:#ff7f2a">
      <path
         id="Shape"
         d="m57 0h-40c-1.6568542 0-3 1.34314575-3 3v2c0 1.65685425 1.3431458 3 3 3h14v8h-24c-1.65685425 0-3 1.3431458-3 3v1.184c-1.19435087.4222546-1.99474861 1.5492146-2 2.816v31.184c-1.19435086.4222546-1.99474861 1.5492146-2 2.816v2c0 .5522847.44771525 1 1 1h58c.5522847 0 1-.4477153 1-1v-2c0-1.6568542-1.3431458-3-3-3h-14v-46h14c1.6568542 0 3-1.34314575 3-3v-2c0-1.65685425-1.3431458-3-3-3zm-16 47.52-3 2.4v-5.44l3-2.4zm0-8-3 2.4v-5.44l3-2.4zm0-8-3 2.4v-5.44l3-2.4zm0-8-3 2.4v-2.92c-.0027851-.7129892-.2618845-1.4011996-.73-1.939l3.73-2.981zm0-8-5 4v-.52c-.0030298-1.4488933-1.0411538-2.6885826-2.467-2.946l7.467-5.974zm-8-1.6v-5.92h7.4zm-27 5.08c0-.5522847.44771525-1 1-1h26c.5522847 0 1 .4477153 1 1v1h-28zm-2 4c0-.5522847.44771525-1 1-1h30c.5522847 0 1 .4477153 1 1v31h-5v-11c0-6.0751322-4.9248678-11-11-11s-11 4.9248678-11 11v11h-5zm25 31h-18v-11c.0000001-4.9705627 4.0294373-8.9999999 9-8.9999999s8.9999999 4.0294372 9 8.9999999zm29 3v1h-56v-1c0-.5522847.44771525-1 1-1h54c.5522847 0 1 .4477153 1 1zm-20-3v-1.52l3-2.4v3.92zm20-49c0 .55228475-.4477153 1-1 1h-40c-.5522847 0-1-.44771525-1-1v-2c0-.55228475.4477153-1 1-1h40c.5522847 0 1 .44771525 1 1z"
         fill="#004C81"
         style="fill:#ff7f2a" />
    </g>
  </g>
</svg>
