<?xml version="1.0" encoding="UTF-8" standalone="no"?>
<svg
   xmlns:dc="http://purl.org/dc/elements/1.1/"
   xmlns:cc="http://creativecommons.org/ns#"
   xmlns:rdf="http://www.w3.org/1999/02/22-rdf-syntax-ns#"
   xmlns:svg="http://www.w3.org/2000/svg"
   xmlns="http://www.w3.org/2000/svg"
   xmlns:sodipodi="http://sodipodi.sourceforge.net/DTD/sodipodi-0.dtd"
   xmlns:inkscape="http://www.inkscape.org/namespaces/inkscape"
   id="Capa_1"
   enable-background="new 0 0 480.686 480.686"
   height="512px"
   viewBox="0 0 480.686 480.686"
   width="512px"
   version="1.1"
   sodipodi:docname="006-anti-flea.svg"
   inkscape:version="1.0.1 (c497b03c, 2020-09-10)">
  <metadata
     id="metadata846">
    <rdf:RDF>
      <cc:Work
         rdf:about="">
        <dc:format>image/svg+xml</dc:format>
        <dc:type
           rdf:resource="http://purl.org/dc/dcmitype/StillImage" />
      </cc:Work>
    </rdf:RDF>
  </metadata>
  <defs
     id="defs844" />
  <sodipodi:namedview
     pagecolor="#ffffff"
     bordercolor="#666666"
     borderopacity="1"
     objecttolerance="10"
     gridtolerance="10"
     guidetolerance="10"
     inkscape:pageopacity="0"
     inkscape:pageshadow="2"
     inkscape:window-width="1440"
     inkscape:window-height="900"
     id="namedview842"
     showgrid="false"
     inkscape:zoom="1.1972656"
     inkscape:cx="256"
     inkscape:cy="256"
     inkscape:window-x="0"
     inkscape:window-y="0"
     inkscape:window-maximized="0"
     inkscape:current-layer="Capa_1" />
  <path
     d="m240.684 480.685c132.548 0 240-107.452 240-240 0-63.652-25.286-124.697-70.295-169.706-93.348-94.102-245.306-94.714-339.409-1.367s-94.714 245.306-1.367 339.409c.455.459.912.915 1.37 1.37 44.91 45.155 106.017 70.467 169.701 70.294zm-158.392-398.392c87.477-87.477 229.307-87.477 316.784 0s87.477 229.307 0 316.784-229.307 87.477-316.784 0-87.477-229.306 0-316.784z"
     fill="#004C81"
     id="path833"
     style="fill:#ff7f2a" />
  <path
     d="m88.09 378.327c.107 0 .213.006.319.006 2.122 0 4.157-.843 5.657-2.343l281.924-281.924c3.124-3.124 3.124-8.19-.001-11.314-.15-.15-.306-.294-.467-.431-37.625-32.033-85.424-49.628-134.838-49.636-114.691 0-208 93.309-208 208 .008 49.414 17.603 97.212 49.636 134.837 1.448 1.699 3.54 2.716 5.77 2.805zm78.25-97.238-21.656 21.655v-30.059c0-2.122-.843-4.157-2.343-5.657l-13.657-13.657v-27.742l28.422 14.211c.442.221.904.401 1.38.537l16.826 4.809zm21.987-21.988 2.378-9.516 5.552 1.587zm20.357-21.016-45.087-12.886-47.335-23.667c-1.111-.557-2.336-.847-3.578-.847h-24v-16c.01-8.633 6.859-15.706 15.488-15.992l55.38 7.911c1.025.146 2.068.092 3.072-.158l31.044-7.761h15.016zm40-39.339-24 24v-54.061h24zm16-16v-14.061c4.486 0 8.974.215 13.437.623zm-24-134.061c42.631.008 84.047 14.198 117.726 40.334l-66.035 66.034c-9.146-1.575-18.41-2.367-27.691-2.368h-72c-.654 0-1.306.08-1.94.239l-30.48 7.62-54.448-7.778c-.375-.054-.753-.081-1.132-.081-17.665.02-31.98 14.335-32 32v24c0 4.418 3.582 8 8 8h8v16c0 4.418 3.582 8 8 8s8-3.582 8-8v-16h6.111l1.889.944v39.056c0 2.122.843 4.157 2.343 5.657l13.657 13.657v42.745l-39.666 39.666c-26.136-33.678-40.326-75.095-40.334-117.725 0-105.869 86.131-192 192-192z"
     fill="#004C81"
     id="path835"
     style="fill:#ff7f2a" />
  <path
     d="m103.042 393.279c.088 2.23 1.103 4.321 2.8 5.77 37.626 32.034 85.426 49.629 134.842 49.636 114.691 0 208-93.309 208-208-.008-49.414-17.603-97.212-49.636-134.837-2.866-3.363-7.915-3.766-11.278-.9-.162.138-.318.282-.468.432l-281.924 281.924c-1.578 1.579-2.425 3.745-2.336 5.975zm227.85-208.862c6.682 3.363 13.098 7.23 19.192 11.568l-49.576 99.154c-3.516-.917-6.979-1.991-10.39-3.224l22.246-88.976zm-.179 114.668c-4.633-.017-9.262-.299-13.863-.844l46.021-92.043c5.202 4.659 10.066 9.68 14.558 15.027zm57.059-64c3.191 4.835 6.091 9.855 8.686 15.034l1.21 2.419c1.979 3.969 3.011 8.342 3.016 12.777.071 14.123-10.247 26.153-24.217 28.233l-26.189 4.031zm-123.088 15.541 25.694-25.695-15.12 60.477c-2.18-1.134-4.341-2.313-6.458-3.583-1.243-.746-2.666-1.14-4.116-1.14zm-16 16v10.635c-2.378-1.063-4.646-2.357-6.771-3.865zm-64.687 64.686 8.687 8.686v28.687c0 4.418 3.582 8 8 8s8-3.582 8-8v-32c0-2.122-.843-4.157-2.343-5.657l-11.03-11.03 13.573-13.575c.412 1.862 1.476 3.516 3 4.662l28.8 21.6v52c0 4.418 3.582 8 8 8s8-3.582 8-8v-56c0-2.518-1.186-4.889-3.2-6.4l-27.75-20.813 3.964-15.861.794-.793c7.222 5.685 15.744 9.484 24.8 11.055 2.356.414 4.738.669 7.128.766 12.603 7.303 26.292 12.544 40.55 15.526l.109.025c.04.008.08.019.121.027 16.059 3.343 32.587 3.778 48.8 1.285l26.9-4.14c21.793-3.248 37.89-22.013 37.784-44.047-.007-6.916-1.616-13.737-4.7-19.928l-1.21-2.42c-10.878-21.694-26.433-40.704-45.544-55.661l-.059-.048c-7.059-5.504-14.558-10.418-22.423-14.691l49.607-49.607c26.135 33.679 40.323 75.095 40.329 117.725 0 105.869-86.131 192-192 192-42.631-.008-84.047-14.198-117.726-40.334z"
     fill="#004C81"
     id="path837"
     style="fill:#ff7f2a" />
  <path
     d="m96.684 176.685h16v16h-16z"
     fill="#004C81"
     id="path839"
     style="fill:#ff7f2a" />
</svg>
