<?xml version="1.0" encoding="UTF-8" standalone="no"?>
<svg
   xmlns:dc="http://purl.org/dc/elements/1.1/"
   xmlns:cc="http://creativecommons.org/ns#"
   xmlns:rdf="http://www.w3.org/1999/02/22-rdf-syntax-ns#"
   xmlns:svg="http://www.w3.org/2000/svg"
   xmlns="http://www.w3.org/2000/svg"
   xmlns:sodipodi="http://sodipodi.sourceforge.net/DTD/sodipodi-0.dtd"
   xmlns:inkscape="http://www.inkscape.org/namespaces/inkscape"
   version="1.1"
   id="Capa_1"
   x="0px"
   y="0px"
   viewBox="0 0 512 512"
   style="enable-background:new 0 0 512 512;"
   xml:space="preserve"
   width="512px"
   height="512px"
   sodipodi:docname="009-pet.svg"
   inkscape:version="1.0.1 (c497b03c, 2020-09-10)"><metadata
   id="metadata904"><rdf:RDF><cc:Work
       rdf:about=""><dc:format>image/svg+xml</dc:format><dc:type
         rdf:resource="http://purl.org/dc/dcmitype/StillImage" /></cc:Work></rdf:RDF></metadata><defs
   id="defs902" /><sodipodi:namedview
   pagecolor="#ffffff"
   bordercolor="#666666"
   borderopacity="1"
   objecttolerance="10"
   gridtolerance="10"
   guidetolerance="10"
   inkscape:pageopacity="0"
   inkscape:pageshadow="2"
   inkscape:window-width="1440"
   inkscape:window-height="900"
   id="namedview900"
   showgrid="false"
   inkscape:zoom="1.1972656"
   inkscape:cx="256"
   inkscape:cy="256"
   inkscape:window-x="0"
   inkscape:window-y="0"
   inkscape:window-maximized="0"
   inkscape:current-layer="Capa_1" />
<g
   id="g837"
   style="fill:#ff7f2a">
	<g
   id="g835"
   style="fill:#ff7f2a">
		<path
   d="M182.136,98.242c-4.592-17.693-21.152-36.268-41.343-31.028c-20.072,5.209-25.622,29.536-21.033,47.219    c4.872,18.767,19.142,31.874,34.702,31.874C178.738,146.307,187.239,117.903,182.136,98.242z M157.335,130.942    c-11.692,3.036-20.603-10.824-23.056-20.277c-1.777-6.849-1.473-13.997,0.837-19.614c2.085-5.071,6.507-9.683,12.318-9.683    c8.451,0,17.128,8.875,20.183,20.643C171.078,115.348,166.37,128.596,157.335,130.942z"
   fill="#004C81"
   id="path833"
   style="fill:#ff7f2a" />
	</g>
</g>
<g
   id="g843"
   style="fill:#ff7f2a">
	<g
   id="g841"
   style="fill:#ff7f2a">
		<path
   d="M116.408,165.465c-4.627-17.827-21.185-36.259-41.343-31.028c-20.064,5.207-25.62,29.545-21.033,47.218    c4.627,17.824,21.186,36.259,41.343,31.028c9.747-2.529,16.069-9.567,19.469-18.163    C118.446,185.414,118.769,174.56,116.408,165.465z M88.735,198.53c-8.451,0-17.128-8.875-20.183-20.643    c-2.451-9.445-1.392-25.899,10.282-28.931c11.692-3.036,20.602,10.825,23.056,20.278    C104.434,179.035,102.699,198.53,88.735,198.53z"
   fill="#004C81"
   id="path839"
   style="fill:#ff7f2a" />
	</g>
</g>
<g
   id="g849"
   style="fill:#ff7f2a">
	<g
   id="g847"
   style="fill:#ff7f2a">
		<path
   d="M268.861,75.729c-4.871-18.767-19.141-31.874-34.701-31.874c-11.962,0-21.771,8.231-26.191,18.978    c-3.571,8.684-4.098,19.014-1.483,29.087c4.106,15.816,17.628,32.121,34.702,31.928c11.964-0.135,21.753-8.241,26.19-19.032    C270.949,96.132,271.476,85.802,268.861,75.729z M241.188,108.795c-8.451,0-17.128-8.875-20.183-20.643    c-1.777-6.848-1.472-13.996,0.837-19.613c2.058-5.005,6.394-9.683,12.318-9.683c8.451,0,17.128,8.875,20.183,20.643    C256.893,89.325,255.189,108.795,241.188,108.795z"
   fill="#004C81"
   id="path845"
   style="fill:#ff7f2a" />
	</g>
</g>
<g
   id="g855"
   style="fill:#ff7f2a">
	<g
   id="g853"
   style="fill:#ff7f2a">
		<path
   d="M358.986,102.498c-4.626-17.824-21.189-36.257-41.343-31.028c-17.196,4.464-26.631,25.646-21.032,47.218    c4.105,15.815,17.627,32.123,34.701,31.929C355.577,150.341,364.151,122.395,358.986,102.498z M331.312,135.562    c-8.451,0-17.127-8.875-20.182-20.643c-3.462-13.336,1.246-26.585,10.282-28.931c11.694-3.036,20.602,10.826,23.056,20.278    C347.016,116.084,345.273,135.562,331.312,135.562z"
   fill="#004C81"
   id="path851"
   style="fill:#ff7f2a" />
	</g>
</g>
<g
   id="g861"
   style="fill:#ff7f2a">
	<g
   id="g859"
   style="fill:#ff7f2a">
		<path
   d="M333.646,184.287c-10.643-14.252-26.235-23.106-40.695-23.106c-5.579,0-10.803,2.144-16.371,2.144    c-7.614,0-13.504-3.29-20.324-7.098c-14.542-8.121-29.042-11.921-45.475-7.655c-21.69,5.63-29.63,18.481-36.01,28.807    c-5.503,8.904-9.849,15.938-22.055,19.106c-13.907,3.61-25.52,17.013-30.307,34.979c-6.058,22.731,0.522,46.284,17.6,63.004    c10.216,10.003,21.105,14.866,33.296,14.868c14.31,0,27.73-6.651,41.937-13.692c9.801-4.858,19.936-9.881,30.442-12.609    c10.506-2.727,21.806-3.268,32.733-3.791c13.715-0.657,26.67-1.277,38.083-5.935c13.543-5.528,22.401-15.892,27.079-31.683    C349.515,221.59,345.894,200.691,333.646,184.287z M329.197,237.365c-7.001,23.631-23.297,25.546-51.497,26.896    c-11.689,0.56-23.776,1.138-35.784,4.255c-12.009,3.117-22.851,8.491-33.335,13.688c-12.588,6.239-24.478,12.132-35.28,12.132    c-8.179-0.001-15.423-3.365-22.798-10.585c-13.162-12.887-18.246-30.989-13.6-48.424c3.294-12.363,11.164-22.138,19.582-24.323    c18.033-4.681,24.947-15.87,31.046-25.742c5.986-9.688,11.156-18.055,27.019-22.173c12.797-3.322,23.174-0.032,34.39,6.232    c7.556,4.22,16.12,9.003,27.639,9.003c5.588,0,10.868-2.144,16.373-2.144c9.671,0,20.927,6.705,28.675,17.081    C327.145,200.651,335.465,216.207,329.197,237.365z"
   fill="#004C81"
   id="path857"
   style="fill:#ff7f2a" />
	</g>
</g>
<g
   id="g867"
   style="fill:#ff7f2a">
	<g
   id="g865"
   style="fill:#ff7f2a">
		<path
   d="M484.891,502.763c-1.348-5.663-91.837-374.167-104.71-422.733c-8.128-30.665-37.806-57.747-71.138-49.102    c-8.019,2.08-15.359,6.159-21.527,11.857C277.866,17.228,255.702,0,231.328,0c-23.091,0-42.063,16.286-49.417,37.535    c-10.724-9.578-23.947-15.021-37.323-15.021c-36.771,0-57.186,37.869-52.366,70.969c-8.179-1.994-16.602-1.959-24.578,0.109    c-14.847,3.852-26.982,14.198-34.172,29.132c-6.986,14.512-8.447,31.692-4.125,48.338c12.41,48.83,90.419,335.446,90.419,335.446    c0.902,3.246,3.857,5.492,7.226,5.492c0,0,350.454,0,350.602,0C482.362,512,485.993,507.398,484.891,502.763z M43.875,167.331    c-3.441-13.253-2.336-26.784,3.112-38.1c5.244-10.894,13.918-18.394,24.424-21.12c2.834-0.736,5.756-1.108,8.685-1.108    c6.462,0,13.104,1.839,19.207,5.319c2.731,1.558,6.146,1.246,8.55-0.782c2.404-2.028,3.288-5.34,2.214-8.295    c-0.652-1.793-1.218-3.611-1.683-5.404c-6.579-25.374,5.728-60.327,36.204-60.327c13.192,0,26.394,7.551,35.314,20.198    c1.799,2.551,4.989,3.72,8.012,2.937c3.021-0.784,5.242-3.357,5.574-6.46C195.611,34.387,209.95,15,231.328,15    c19.661,0,38.24,16.595,44.174,39.448c0.481,1.864,0.861,3.68,1.161,5.552c1.083,6.755,10.282,8.551,13.823,2.695    c5.375-8.889,13.094-14.853,22.323-17.247c25.156-6.526,46.995,15.764,52.862,38.386c12.469,47.044,28.3,109.333,47.076,185.233    L92.853,352.105C72.364,276.756,55.895,214.629,43.875,167.331z M132.693,497l-0.322-1.16c0,0,248.806-64.587,248.89-64.609    c3.929-1.02,6.396-5.216,5.375-9.144c-1.04-4.009-5.135-6.415-9.144-5.375L128.36,481.384    c-5.086-18.359-9.571-34.604-13.848-50.154c0,0,38.763-10.062,38.786-10.068c3.938-1.022,6.397-5.21,5.375-9.144    c-1.041-4.009-5.132-6.417-9.144-5.375l-38.995,10.123c-4.992-18.146-9.521-34.685-13.743-50.185l319.551-82.948    c4.044,16.405,8.203,33.34,12.407,50.528c0,0-250.307,64.977-250.448,65.014c-3.934,1.021-6.396,5.214-5.375,9.144    c1.041,4.01,5.138,6.417,9.144,5.375l250.24-64.96c4.324,17.726,8.449,34.712,12.291,50.56c0,0-38.294,9.94-38.347,9.954    c-4.342,1.127-6.8,6.358-4.909,10.427c1.48,3.183,5.236,4.968,8.641,4.099c0.012-0.003,0.024-0.004,0.036-0.007l23.107-5.999    l15-3.894c4.406,18.246,8.555,35.484,12.18,50.598L334.999,497H132.693z M394.699,497l69.108-17.939    c1.705,7.116,3.146,13.15,4.29,17.939H394.699z"
   fill="#004C81"
   id="path863"
   style="fill:#ff7f2a" />
	</g>
</g>
<g
   id="g869">
</g>
<g
   id="g871">
</g>
<g
   id="g873">
</g>
<g
   id="g875">
</g>
<g
   id="g877">
</g>
<g
   id="g879">
</g>
<g
   id="g881">
</g>
<g
   id="g883">
</g>
<g
   id="g885">
</g>
<g
   id="g887">
</g>
<g
   id="g889">
</g>
<g
   id="g891">
</g>
<g
   id="g893">
</g>
<g
   id="g895">
</g>
<g
   id="g897">
</g>
</svg>
